<svg width="148" height="62" viewBox="0 0 148 62" fill="none" xmlns="http://www.w3.org/2000/svg">
<path d="M32.0508 50H27.5586L13.3252 22.6074V50H8.83301V14.4531H13.3252L27.6074 41.9678V14.4531H32.0508V50ZM56.8311 33.5693H44.2578V46.167H58.9062V50H39.79V14.4531H58.6621V18.3105H44.2578V29.7363H56.8311V33.5693ZM71.4307 38.7939L71.8945 42.7734L72.6025 39.2578L78.291 14.4531H82.0264L87.5439 39.2578L88.252 42.8711L88.7646 38.7695L93.1104 14.4531H97.5781L90.498 50H86.4697L80.5371 24.0967L80.1709 21.9971L79.8047 24.0967L73.6523 50H69.5996L62.5439 14.4531H67.0117L71.4307 38.7939ZM118.477 39.9658H114.595L114.277 14.4531H118.818L118.477 39.9658ZM116.646 45.1416C117.459 45.1416 118.07 45.3939 118.477 45.8984C118.9 46.3867 119.111 46.9971 119.111 47.7295C119.111 48.4619 118.9 49.0723 118.477 49.5605C118.07 50.0326 117.459 50.2686 116.646 50.2686C115.815 50.2686 115.197 50.0326 114.79 49.5605C114.383 49.0723 114.18 48.4619 114.18 47.7295C114.18 46.9971 114.383 46.3867 114.79 45.8984C115.197 45.3939 115.815 45.1416 116.646 45.1416ZM130.781 39.9658H126.899L126.582 14.4531H131.123L130.781 39.9658ZM128.95 45.1416C129.764 45.1416 130.374 45.3939 130.781 45.8984C131.204 46.3867 131.416 46.9971 131.416 47.7295C131.416 48.4619 131.204 49.0723 130.781 49.5605C130.374 50.0326 129.764 50.2686 128.95 50.2686C128.12 50.2686 127.502 50.0326 127.095 49.5605C126.688 49.0723 126.484 48.4619 126.484 47.7295C126.484 46.9971 126.688 46.3867 127.095 45.8984C127.502 45.3939 128.12 45.1416 128.95 45.1416ZM143.086 39.9658H139.204L138.887 14.4531H143.428L143.086 39.9658ZM141.255 45.1416C142.069 45.1416 142.679 45.3939 143.086 45.8984C143.509 46.3867 143.721 46.9971 143.721 47.7295C143.721 48.4619 143.509 49.0723 143.086 49.5605C142.679 50.0326 142.069 50.2686 141.255 50.2686C140.425 50.2686 139.806 50.0326 139.399 49.5605C138.993 49.0723 138.789 48.4619 138.789 47.7295C138.789 46.9971 138.993 46.3867 139.399 45.8984C139.806 45.3939 140.425 45.1416 141.255 45.1416Z" fill="#00FFF0"/>
<path d="M30.0508 48H25.5586L11.3252 20.6074V48H6.83301V12.4531H11.3252L25.6074 39.9678V12.4531H30.0508V48ZM54.8311 31.5693H42.2578V44.167H56.9062V48H37.79V12.4531H56.6621V16.3105H42.2578V27.7363H54.8311V31.5693ZM69.4307 36.7939L69.8945 40.7734L70.6025 37.2578L76.291 12.4531H80.0264L85.5439 37.2578L86.252 40.8711L86.7646 36.7695L91.1104 12.4531H95.5781L88.498 48H84.4697L78.5371 22.0967L78.1709 19.9971L77.8047 22.0967L71.6523 48H67.5996L60.5439 12.4531H65.0117L69.4307 36.7939ZM116.477 37.9658H112.595L112.277 12.4531H116.818L116.477 37.9658ZM114.646 43.1416C115.459 43.1416 116.07 43.3939 116.477 43.8984C116.9 44.3867 117.111 44.9971 117.111 45.7295C117.111 46.4619 116.9 47.0723 116.477 47.5605C116.07 48.0326 115.459 48.2686 114.646 48.2686C113.815 48.2686 113.197 48.0326 112.79 47.5605C112.383 47.0723 112.18 46.4619 112.18 45.7295C112.18 44.9971 112.383 44.3867 112.79 43.8984C113.197 43.3939 113.815 43.1416 114.646 43.1416ZM128.781 37.9658H124.899L124.582 12.4531H129.123L128.781 37.9658ZM126.95 43.1416C127.764 43.1416 128.374 43.3939 128.781 43.8984C129.204 44.3867 129.416 44.9971 129.416 45.7295C129.416 46.4619 129.204 47.0723 128.781 47.5605C128.374 48.0326 127.764 48.2686 126.95 48.2686C126.12 48.2686 125.502 48.0326 125.095 47.5605C124.688 47.0723 124.484 46.4619 124.484 45.7295C124.484 44.9971 124.688 44.3867 125.095 43.8984C125.502 43.3939 126.12 43.1416 126.95 43.1416ZM141.086 37.9658H137.204L136.887 12.4531H141.428L141.086 37.9658ZM139.255 43.1416C140.069 43.1416 140.679 43.3939 141.086 43.8984C141.509 44.3867 141.721 44.9971 141.721 45.7295C141.721 46.4619 141.509 47.0723 141.086 47.5605C140.679 48.0326 140.069 48.2686 139.255 48.2686C138.425 48.2686 137.806 48.0326 137.399 47.5605C136.993 47.0723 136.789 46.4619 136.789 45.7295C136.789 44.9971 136.993 44.3867 137.399 43.8984C137.806 43.3939 138.425 43.1416 139.255 43.1416Z" fill="#FF0099"/>
<path d="M27.0508 47H22.5586L8.3252 19.6074V47H3.83301V11.4531H8.3252L22.6074 38.9678V11.4531H27.0508V47ZM51.8311 30.5693H39.2578V43.167H53.9062V47H34.79V11.4531H53.6621V15.3105H39.2578V26.7363H51.8311V30.5693ZM66.4307 35.7939L66.8945 39.7734L67.6025 36.2578L73.291 11.4531H77.0264L82.5439 36.2578L83.252 39.8711L83.7646 35.7695L88.1104 11.4531H92.5781L85.498 47H81.4697L75.5371 21.0967L75.1709 18.9971L74.8047 21.0967L68.6523 47H64.5996L57.5439 11.4531H62.0117L66.4307 35.7939ZM113.477 36.9658H109.595L109.277 11.4531H113.818L113.477 36.9658ZM111.646 42.1416C112.459 42.1416 113.07 42.3939 113.477 42.8984C113.9 43.3867 114.111 43.9971 114.111 44.7295C114.111 45.4619 113.9 46.0723 113.477 46.5605C113.07 47.0326 112.459 47.2686 111.646 47.2686C110.815 47.2686 110.197 47.0326 109.79 46.5605C109.383 46.0723 109.18 45.4619 109.18 44.7295C109.18 43.9971 109.383 43.3867 109.79 42.8984C110.197 42.3939 110.815 42.1416 111.646 42.1416ZM125.781 36.9658H121.899L121.582 11.4531H126.123L125.781 36.9658ZM123.95 42.1416C124.764 42.1416 125.374 42.3939 125.781 42.8984C126.204 43.3867 126.416 43.9971 126.416 44.7295C126.416 45.4619 126.204 46.0723 125.781 46.5605C125.374 47.0326 124.764 47.2686 123.95 47.2686C123.12 47.2686 122.502 47.0326 122.095 46.5605C121.688 46.0723 121.484 45.4619 121.484 44.7295C121.484 43.9971 121.688 43.3867 122.095 42.8984C122.502 42.3939 123.12 42.1416 123.95 42.1416ZM138.086 36.9658H134.204L133.887 11.4531H138.428L138.086 36.9658ZM136.255 42.1416C137.069 42.1416 137.679 42.3939 138.086 42.8984C138.509 43.3867 138.721 43.9971 138.721 44.7295C138.721 45.4619 138.509 46.0723 138.086 46.5605C137.679 47.0326 137.069 47.2686 136.255 47.2686C135.425 47.2686 134.806 47.0326 134.399 46.5605C133.993 46.0723 133.789 45.4619 133.789 44.7295C133.789 43.9971 133.993 43.3867 134.399 42.8984C134.806 42.3939 135.425 42.1416 136.255 42.1416Z" fill="white"/>
</svg>
