<svg width="483" height="129" viewBox="0 0 483 129" fill="none" xmlns="http://www.w3.org/2000/svg">
<path d="M60.5156 75.6543C60.5156 81.9043 59.6693 87.194 57.9766 91.5234C56.3164 95.8203 53.9401 99.1732 50.8477 101.582L61.4434 111.104L55.3887 117.012L42.5957 105.342C40.5449 105.765 38.5592 105.977 36.6387 105.977C29.2493 105.977 23.4225 103.389 19.1582 98.2129C14.9264 93.0046 12.7617 85.6966 12.6641 76.2891V63.3496C12.6641 53.7793 14.7637 46.3249 18.9629 40.9863C23.1621 35.6152 29.0215 32.9297 36.541 32.9297C44.1257 32.9297 50.0013 35.5501 54.168 40.791C58.3346 45.9993 60.4505 53.3887 60.5156 62.959V75.6543ZM51.5801 63.252C51.5801 55.7324 50.3431 50.1497 47.8691 46.5039C45.4277 42.8255 41.6517 40.9863 36.541 40.9863C31.6582 40.9863 27.9473 42.8418 25.4082 46.5527C22.9017 50.2637 21.6322 55.7324 21.5996 62.959V75.6543C21.5996 82.946 22.8529 88.4961 25.3594 92.3047C27.8984 96.1133 31.6582 98.0176 36.6387 98.0176C41.5866 98.0176 45.2812 96.2923 47.7227 92.8418C50.1641 89.3913 51.4499 84.069 51.5801 76.875V63.252ZM100.457 100.361C97.5924 104.105 93.4095 105.977 87.9082 105.977C83.123 105.977 79.5098 104.333 77.0684 101.045C74.627 97.7246 73.39 92.9069 73.3574 86.5918V52.168H81.9512V85.957C81.9512 94.1927 84.4251 98.3105 89.373 98.3105C94.6139 98.3105 98.2272 95.9668 100.213 91.2793V52.168H108.855V105H100.652L100.457 100.361ZM131.17 105H122.527V52.168H131.17V105ZM131.854 38.1543C131.854 39.6191 131.447 40.8398 130.633 41.8164C129.819 42.793 128.582 43.2812 126.922 43.2812C125.294 43.2812 124.074 42.793 123.26 41.8164C122.446 40.8398 122.039 39.6191 122.039 38.1543C122.039 36.6895 122.446 35.4525 123.26 34.4434C124.074 33.4342 125.294 32.9297 126.922 32.9297C128.549 32.9297 129.77 33.4505 130.584 34.4922C131.43 35.5013 131.854 36.722 131.854 38.1543ZM193.426 91.4746C193.426 89.6191 192.726 88.0241 191.326 86.6895C189.926 85.3548 187.225 83.7923 183.221 82.002C178.566 80.0814 175.278 78.4375 173.357 77.0703C171.469 75.7031 170.053 74.1569 169.109 72.4316C168.165 70.6738 167.693 68.5905 167.693 66.1816C167.693 61.8848 169.256 58.3203 172.381 55.4883C175.538 52.6237 179.559 51.1914 184.441 51.1914C189.585 51.1914 193.719 52.6888 196.844 55.6836C199.969 58.6784 201.531 62.5195 201.531 67.207H192.938C192.938 64.8307 192.14 62.8125 190.545 61.1523C188.95 59.4596 186.915 58.6133 184.441 58.6133C181.902 58.6133 179.9 59.2806 178.436 60.6152C177.003 61.9173 176.287 63.6751 176.287 65.8887C176.287 67.6465 176.808 69.0625 177.85 70.1367C178.924 71.2109 181.479 72.627 185.516 74.3848C191.928 76.8913 196.29 79.349 198.602 81.7578C200.913 84.1341 202.068 87.1615 202.068 90.8398C202.068 95.4297 200.49 99.1081 197.332 101.875C194.174 104.609 189.943 105.977 184.637 105.977C179.135 105.977 174.676 104.398 171.258 101.24C167.84 98.0827 166.131 94.0788 166.131 89.2285H174.822C174.92 92.1582 175.815 94.4531 177.508 96.1133C179.201 97.7734 181.577 98.6035 184.637 98.6035C187.501 98.6035 189.682 97.9688 191.18 96.6992C192.677 95.3971 193.426 93.6556 193.426 91.4746ZM240.301 100.361C237.436 104.105 233.253 105.977 227.752 105.977C222.967 105.977 219.354 104.333 216.912 101.045C214.471 97.7246 213.234 92.9069 213.201 86.5918V52.168H221.795V85.957C221.795 94.1927 224.269 98.3105 229.217 98.3105C234.458 98.3105 238.071 95.9668 240.057 91.2793V52.168H248.699V105H240.496L240.301 100.361ZM271.014 105H262.371V52.168H271.014V105ZM271.697 38.1543C271.697 39.6191 271.29 40.8398 270.477 41.8164C269.663 42.793 268.426 43.2812 266.766 43.2812C265.138 43.2812 263.917 42.793 263.104 41.8164C262.29 40.8398 261.883 39.6191 261.883 38.1543C261.883 36.6895 262.29 35.4525 263.104 34.4434C263.917 33.4342 265.138 32.9297 266.766 32.9297C268.393 32.9297 269.614 33.4505 270.428 34.4922C271.274 35.5013 271.697 36.722 271.697 38.1543ZM310.32 91.4746C310.32 89.6191 309.62 88.0241 308.221 86.6895C306.821 85.3548 304.119 83.7923 300.115 82.002C295.46 80.0814 292.173 78.4375 290.252 77.0703C288.364 75.7031 286.948 74.1569 286.004 72.4316C285.06 70.6738 284.588 68.5905 284.588 66.1816C284.588 61.8848 286.15 58.3203 289.275 55.4883C292.433 52.6237 296.453 51.1914 301.336 51.1914C306.479 51.1914 310.613 52.6888 313.738 55.6836C316.863 58.6784 318.426 62.5195 318.426 67.207H309.832C309.832 64.8307 309.035 62.8125 307.439 61.1523C305.844 59.4596 303.81 58.6133 301.336 58.6133C298.797 58.6133 296.795 59.2806 295.33 60.6152C293.898 61.9173 293.182 63.6751 293.182 65.8887C293.182 67.6465 293.702 69.0625 294.744 70.1367C295.818 71.2109 298.374 72.627 302.41 74.3848C308.823 76.8913 313.185 79.349 315.496 81.7578C317.807 84.1341 318.963 87.1615 318.963 90.8398C318.963 95.4297 317.384 99.1081 314.227 101.875C311.069 104.609 306.837 105.977 301.531 105.977C296.03 105.977 291.57 104.398 288.152 101.24C284.734 98.0827 283.025 94.0788 283.025 89.2285H291.717C291.814 92.1582 292.71 94.4531 294.402 96.1133C296.095 97.7734 298.471 98.6035 301.531 98.6035C304.396 98.6035 306.577 97.9688 308.074 96.6992C309.572 95.3971 310.32 93.6556 310.32 91.4746ZM346.258 78.4863H326.092V71.1133H346.258V78.4863ZM363.885 52.168V111.641C363.787 121.439 359.913 126.338 352.264 126.338C350.506 126.338 348.927 126.045 347.527 125.459L347.479 118.232C348.357 118.493 349.48 118.623 350.848 118.623C352.312 118.623 353.403 118.07 354.119 116.963C354.868 115.889 355.242 114.001 355.242 111.299V52.168H363.885ZM364.275 38.1543C364.275 39.6191 363.868 40.8398 363.055 41.8164C362.241 42.793 361.004 43.2812 359.344 43.2812C357.716 43.2812 356.495 42.793 355.682 41.8164C354.9 40.8398 354.51 39.6191 354.51 38.1543C354.51 36.6895 354.9 35.4525 355.682 34.4434C356.495 33.4342 357.716 32.9297 359.344 32.9297C360.971 32.9297 362.192 33.4505 363.006 34.4922C363.852 35.5013 364.275 36.722 364.275 38.1543ZM396.307 105.977C389.731 105.977 384.686 104.023 381.17 100.117C377.654 96.1784 375.864 90.4167 375.799 82.832V76.4355C375.799 68.5579 377.508 62.3893 380.926 57.9297C384.376 53.4375 389.178 51.1914 395.33 51.1914C401.515 51.1914 406.137 53.1608 409.197 57.0996C412.257 61.0384 413.82 67.1745 413.885 75.5078V81.1719H384.393V82.3926C384.393 88.0566 385.451 92.1745 387.566 94.7461C389.715 97.3177 392.791 98.6035 396.795 98.6035C399.334 98.6035 401.564 98.1315 403.484 97.1875C405.438 96.2109 407.26 94.681 408.953 92.5977L413.445 98.0664C409.702 103.34 403.989 105.977 396.307 105.977ZM395.33 58.6133C391.749 58.6133 389.096 59.8503 387.371 62.3242C385.646 64.7656 384.669 68.5742 384.441 73.75H405.242V72.5781C405.014 67.5651 404.103 63.9844 402.508 61.8359C400.945 59.6875 398.553 58.6133 395.33 58.6133ZM456.121 84.9805C456.121 81.0742 456.528 77.9004 457.342 75.459C458.156 73.0176 460.141 69.9089 463.299 66.1328L466.717 61.7383C468.995 58.5482 470.135 55.2279 470.135 51.7773C470.135 48.3594 469.419 45.6901 467.986 43.7695C466.587 41.8164 464.568 40.8398 461.932 40.8398C459.458 40.8398 457.391 41.7188 455.73 43.4766C454.103 45.2344 453.289 47.5944 453.289 50.5566H444.695C444.76 45.1855 446.388 40.9049 449.578 37.7148C452.768 34.5247 456.886 32.9297 461.932 32.9297C467.173 32.9297 471.29 34.5736 474.285 37.8613C477.28 41.1491 478.777 45.6901 478.777 51.4844C478.777 57.0182 476.515 62.5684 471.99 68.1348L467.498 73.5547C465.643 76.1914 464.715 80 464.715 84.9805H456.121ZM460.809 95.2832C462.436 95.2832 463.657 95.7878 464.471 96.7969C465.317 97.7734 465.74 98.9941 465.74 100.459C465.74 101.924 465.317 103.145 464.471 104.121C463.657 105.065 462.436 105.537 460.809 105.537C459.148 105.537 457.911 105.065 457.098 104.121C456.316 103.145 455.926 101.924 455.926 100.459C455.926 98.9941 456.316 97.7734 457.098 96.7969C457.911 95.7878 459.148 95.2832 460.809 95.2832Z" fill="#00E0FF"/>
<path d="M56.5156 71.6543C56.5156 77.9043 55.6693 83.194 53.9766 87.5234C52.3164 91.8203 49.9401 95.1732 46.8477 97.582L57.4434 107.104L51.3887 113.012L38.5957 101.342C36.5449 101.765 34.5592 101.977 32.6387 101.977C25.2493 101.977 19.4225 99.3887 15.1582 94.2129C10.9264 89.0046 8.76172 81.6966 8.66406 72.2891V59.3496C8.66406 49.7793 10.7637 42.3249 14.9629 36.9863C19.1621 31.6152 25.0215 28.9297 32.541 28.9297C40.1257 28.9297 46.0013 31.5501 50.168 36.791C54.3346 41.9993 56.4505 49.3887 56.5156 58.959V71.6543ZM47.5801 59.252C47.5801 51.7324 46.3431 46.1497 43.8691 42.5039C41.4277 38.8255 37.6517 36.9863 32.541 36.9863C27.6582 36.9863 23.9473 38.8418 21.4082 42.5527C18.9017 46.2637 17.6322 51.7324 17.5996 58.959V71.6543C17.5996 78.946 18.8529 84.4961 21.3594 88.3047C23.8984 92.1133 27.6582 94.0176 32.6387 94.0176C37.5866 94.0176 41.2812 92.2923 43.7227 88.8418C46.1641 85.3913 47.4499 80.069 47.5801 72.875V59.252ZM96.457 96.3613C93.5924 100.105 89.4095 101.977 83.9082 101.977C79.123 101.977 75.5098 100.333 73.0684 97.0449C70.627 93.7246 69.39 88.9069 69.3574 82.5918V48.168H77.9512V81.957C77.9512 90.1927 80.4251 94.3105 85.373 94.3105C90.6139 94.3105 94.2272 91.9668 96.2129 87.2793V48.168H104.855V101H96.6523L96.457 96.3613ZM127.17 101H118.527V48.168H127.17V101ZM127.854 34.1543C127.854 35.6191 127.447 36.8398 126.633 37.8164C125.819 38.793 124.582 39.2812 122.922 39.2812C121.294 39.2812 120.074 38.793 119.26 37.8164C118.446 36.8398 118.039 35.6191 118.039 34.1543C118.039 32.6895 118.446 31.4525 119.26 30.4434C120.074 29.4342 121.294 28.9297 122.922 28.9297C124.549 28.9297 125.77 29.4505 126.584 30.4922C127.43 31.5013 127.854 32.722 127.854 34.1543ZM189.426 87.4746C189.426 85.6191 188.726 84.0241 187.326 82.6895C185.926 81.3548 183.225 79.7923 179.221 78.002C174.566 76.0814 171.278 74.4375 169.357 73.0703C167.469 71.7031 166.053 70.1569 165.109 68.4316C164.165 66.6738 163.693 64.5905 163.693 62.1816C163.693 57.8848 165.256 54.3203 168.381 51.4883C171.538 48.6237 175.559 47.1914 180.441 47.1914C185.585 47.1914 189.719 48.6888 192.844 51.6836C195.969 54.6784 197.531 58.5195 197.531 63.207H188.938C188.938 60.8307 188.14 58.8125 186.545 57.1523C184.95 55.4596 182.915 54.6133 180.441 54.6133C177.902 54.6133 175.9 55.2806 174.436 56.6152C173.003 57.9173 172.287 59.6751 172.287 61.8887C172.287 63.6465 172.808 65.0625 173.85 66.1367C174.924 67.2109 177.479 68.627 181.516 70.3848C187.928 72.8913 192.29 75.349 194.602 77.7578C196.913 80.1341 198.068 83.1615 198.068 86.8398C198.068 91.4297 196.49 95.1081 193.332 97.875C190.174 100.609 185.943 101.977 180.637 101.977C175.135 101.977 170.676 100.398 167.258 97.2402C163.84 94.0827 162.131 90.0788 162.131 85.2285H170.822C170.92 88.1582 171.815 90.4531 173.508 92.1133C175.201 93.7734 177.577 94.6035 180.637 94.6035C183.501 94.6035 185.682 93.9688 187.18 92.6992C188.677 91.3971 189.426 89.6556 189.426 87.4746ZM236.301 96.3613C233.436 100.105 229.253 101.977 223.752 101.977C218.967 101.977 215.354 100.333 212.912 97.0449C210.471 93.7246 209.234 88.9069 209.201 82.5918V48.168H217.795V81.957C217.795 90.1927 220.269 94.3105 225.217 94.3105C230.458 94.3105 234.071 91.9668 236.057 87.2793V48.168H244.699V101H236.496L236.301 96.3613ZM267.014 101H258.371V48.168H267.014V101ZM267.697 34.1543C267.697 35.6191 267.29 36.8398 266.477 37.8164C265.663 38.793 264.426 39.2812 262.766 39.2812C261.138 39.2812 259.917 38.793 259.104 37.8164C258.29 36.8398 257.883 35.6191 257.883 34.1543C257.883 32.6895 258.29 31.4525 259.104 30.4434C259.917 29.4342 261.138 28.9297 262.766 28.9297C264.393 28.9297 265.614 29.4505 266.428 30.4922C267.274 31.5013 267.697 32.722 267.697 34.1543ZM306.32 87.4746C306.32 85.6191 305.62 84.0241 304.221 82.6895C302.821 81.3548 300.119 79.7923 296.115 78.002C291.46 76.0814 288.173 74.4375 286.252 73.0703C284.364 71.7031 282.948 70.1569 282.004 68.4316C281.06 66.6738 280.588 64.5905 280.588 62.1816C280.588 57.8848 282.15 54.3203 285.275 51.4883C288.433 48.6237 292.453 47.1914 297.336 47.1914C302.479 47.1914 306.613 48.6888 309.738 51.6836C312.863 54.6784 314.426 58.5195 314.426 63.207H305.832C305.832 60.8307 305.035 58.8125 303.439 57.1523C301.844 55.4596 299.81 54.6133 297.336 54.6133C294.797 54.6133 292.795 55.2806 291.33 56.6152C289.898 57.9173 289.182 59.6751 289.182 61.8887C289.182 63.6465 289.702 65.0625 290.744 66.1367C291.818 67.2109 294.374 68.627 298.41 70.3848C304.823 72.8913 309.185 75.349 311.496 77.7578C313.807 80.1341 314.963 83.1615 314.963 86.8398C314.963 91.4297 313.384 95.1081 310.227 97.875C307.069 100.609 302.837 101.977 297.531 101.977C292.03 101.977 287.57 100.398 284.152 97.2402C280.734 94.0827 279.025 90.0788 279.025 85.2285H287.717C287.814 88.1582 288.71 90.4531 290.402 92.1133C292.095 93.7734 294.471 94.6035 297.531 94.6035C300.396 94.6035 302.577 93.9688 304.074 92.6992C305.572 91.3971 306.32 89.6556 306.32 87.4746ZM342.258 74.4863H322.092V67.1133H342.258V74.4863ZM359.885 48.168V107.641C359.787 117.439 355.913 122.338 348.264 122.338C346.506 122.338 344.927 122.045 343.527 121.459L343.479 114.232C344.357 114.493 345.48 114.623 346.848 114.623C348.312 114.623 349.403 114.07 350.119 112.963C350.868 111.889 351.242 110.001 351.242 107.299V48.168H359.885ZM360.275 34.1543C360.275 35.6191 359.868 36.8398 359.055 37.8164C358.241 38.793 357.004 39.2812 355.344 39.2812C353.716 39.2812 352.495 38.793 351.682 37.8164C350.9 36.8398 350.51 35.6191 350.51 34.1543C350.51 32.6895 350.9 31.4525 351.682 30.4434C352.495 29.4342 353.716 28.9297 355.344 28.9297C356.971 28.9297 358.192 29.4505 359.006 30.4922C359.852 31.5013 360.275 32.722 360.275 34.1543ZM392.307 101.977C385.731 101.977 380.686 100.023 377.17 96.1172C373.654 92.1784 371.864 86.4167 371.799 78.832V72.4355C371.799 64.5579 373.508 58.3893 376.926 53.9297C380.376 49.4375 385.178 47.1914 391.33 47.1914C397.515 47.1914 402.137 49.1608 405.197 53.0996C408.257 57.0384 409.82 63.1745 409.885 71.5078V77.1719H380.393V78.3926C380.393 84.0566 381.451 88.1745 383.566 90.7461C385.715 93.3177 388.791 94.6035 392.795 94.6035C395.334 94.6035 397.564 94.1315 399.484 93.1875C401.438 92.2109 403.26 90.681 404.953 88.5977L409.445 94.0664C405.702 99.3398 399.989 101.977 392.307 101.977ZM391.33 54.6133C387.749 54.6133 385.096 55.8503 383.371 58.3242C381.646 60.7656 380.669 64.5742 380.441 69.75H401.242V68.5781C401.014 63.5651 400.103 59.9844 398.508 57.8359C396.945 55.6875 394.553 54.6133 391.33 54.6133ZM452.121 80.9805C452.121 77.0742 452.528 73.9004 453.342 71.459C454.156 69.0176 456.141 65.9089 459.299 62.1328L462.717 57.7383C464.995 54.5482 466.135 51.2279 466.135 47.7773C466.135 44.3594 465.419 41.6901 463.986 39.7695C462.587 37.8164 460.568 36.8398 457.932 36.8398C455.458 36.8398 453.391 37.7188 451.73 39.4766C450.103 41.2344 449.289 43.5944 449.289 46.5566H440.695C440.76 41.1855 442.388 36.9049 445.578 33.7148C448.768 30.5247 452.886 28.9297 457.932 28.9297C463.173 28.9297 467.29 30.5736 470.285 33.8613C473.28 37.1491 474.777 41.6901 474.777 47.4844C474.777 53.0182 472.515 58.5684 467.99 64.1348L463.498 69.5547C461.643 72.1914 460.715 76 460.715 80.9805H452.121ZM456.809 91.2832C458.436 91.2832 459.657 91.7878 460.471 92.7969C461.317 93.7734 461.74 94.9941 461.74 96.459C461.74 97.9238 461.317 99.1445 460.471 100.121C459.657 101.065 458.436 101.537 456.809 101.537C455.148 101.537 453.911 101.065 453.098 100.121C452.316 99.1445 451.926 97.9238 451.926 96.459C451.926 94.9941 452.316 93.7734 453.098 92.7969C453.911 91.7878 455.148 91.2832 456.809 91.2832Z" fill="#FF00C7"/>
<path d="M53.5156 63.6543C53.5156 69.9043 52.6693 75.194 50.9766 79.5234C49.3164 83.8203 46.9401 87.1732 43.8477 89.582L54.4434 99.1035L48.3887 105.012L35.5957 93.3418C33.5449 93.765 31.5592 93.9766 29.6387 93.9766C22.2493 93.9766 16.4225 91.3887 12.1582 86.2129C7.92643 81.0046 5.76172 73.6966 5.66406 64.2891V51.3496C5.66406 41.7793 7.76367 34.3249 11.9629 28.9863C16.1621 23.6152 22.0215 20.9297 29.541 20.9297C37.1257 20.9297 43.0013 23.5501 47.168 28.791C51.3346 33.9993 53.4505 41.3887 53.5156 50.959V63.6543ZM44.5801 51.252C44.5801 43.7324 43.3431 38.1497 40.8691 34.5039C38.4277 30.8255 34.6517 28.9863 29.541 28.9863C24.6582 28.9863 20.9473 30.8418 18.4082 34.5527C15.9017 38.2637 14.6322 43.7324 14.5996 50.959V63.6543C14.5996 70.946 15.8529 76.4961 18.3594 80.3047C20.8984 84.1133 24.6582 86.0176 29.6387 86.0176C34.5866 86.0176 38.2812 84.2923 40.7227 80.8418C43.1641 77.3913 44.4499 72.069 44.5801 64.875V51.252ZM93.457 88.3613C90.5924 92.1048 86.4095 93.9766 80.9082 93.9766C76.123 93.9766 72.5098 92.3327 70.0684 89.0449C67.627 85.7246 66.39 80.9069 66.3574 74.5918V40.168H74.9512V73.957C74.9512 82.1927 77.4251 86.3105 82.373 86.3105C87.6139 86.3105 91.2272 83.9668 93.2129 79.2793V40.168H101.855V93H93.6523L93.457 88.3613ZM124.17 93H115.527V40.168H124.17V93ZM124.854 26.1543C124.854 27.6191 124.447 28.8398 123.633 29.8164C122.819 30.793 121.582 31.2812 119.922 31.2812C118.294 31.2812 117.074 30.793 116.26 29.8164C115.446 28.8398 115.039 27.6191 115.039 26.1543C115.039 24.6895 115.446 23.4525 116.26 22.4434C117.074 21.4342 118.294 20.9297 119.922 20.9297C121.549 20.9297 122.77 21.4505 123.584 22.4922C124.43 23.5013 124.854 24.722 124.854 26.1543ZM186.426 79.4746C186.426 77.6191 185.726 76.0241 184.326 74.6895C182.926 73.3548 180.225 71.7923 176.221 70.002C171.566 68.0814 168.278 66.4375 166.357 65.0703C164.469 63.7031 163.053 62.1569 162.109 60.4316C161.165 58.6738 160.693 56.5905 160.693 54.1816C160.693 49.8848 162.256 46.3203 165.381 43.4883C168.538 40.6237 172.559 39.1914 177.441 39.1914C182.585 39.1914 186.719 40.6888 189.844 43.6836C192.969 46.6784 194.531 50.5195 194.531 55.207H185.938C185.938 52.8307 185.14 50.8125 183.545 49.1523C181.95 47.4596 179.915 46.6133 177.441 46.6133C174.902 46.6133 172.9 47.2806 171.436 48.6152C170.003 49.9173 169.287 51.6751 169.287 53.8887C169.287 55.6465 169.808 57.0625 170.85 58.1367C171.924 59.2109 174.479 60.627 178.516 62.3848C184.928 64.8913 189.29 67.349 191.602 69.7578C193.913 72.1341 195.068 75.1615 195.068 78.8398C195.068 83.4297 193.49 87.1081 190.332 89.875C187.174 92.6094 182.943 93.9766 177.637 93.9766C172.135 93.9766 167.676 92.3978 164.258 89.2402C160.84 86.0827 159.131 82.0788 159.131 77.2285H167.822C167.92 80.1582 168.815 82.4531 170.508 84.1133C172.201 85.7734 174.577 86.6035 177.637 86.6035C180.501 86.6035 182.682 85.9688 184.18 84.6992C185.677 83.3971 186.426 81.6556 186.426 79.4746ZM233.301 88.3613C230.436 92.1048 226.253 93.9766 220.752 93.9766C215.967 93.9766 212.354 92.3327 209.912 89.0449C207.471 85.7246 206.234 80.9069 206.201 74.5918V40.168H214.795V73.957C214.795 82.1927 217.269 86.3105 222.217 86.3105C227.458 86.3105 231.071 83.9668 233.057 79.2793V40.168H241.699V93H233.496L233.301 88.3613ZM264.014 93H255.371V40.168H264.014V93ZM264.697 26.1543C264.697 27.6191 264.29 28.8398 263.477 29.8164C262.663 30.793 261.426 31.2812 259.766 31.2812C258.138 31.2812 256.917 30.793 256.104 29.8164C255.29 28.8398 254.883 27.6191 254.883 26.1543C254.883 24.6895 255.29 23.4525 256.104 22.4434C256.917 21.4342 258.138 20.9297 259.766 20.9297C261.393 20.9297 262.614 21.4505 263.428 22.4922C264.274 23.5013 264.697 24.722 264.697 26.1543ZM303.32 79.4746C303.32 77.6191 302.62 76.0241 301.221 74.6895C299.821 73.3548 297.119 71.7923 293.115 70.002C288.46 68.0814 285.173 66.4375 283.252 65.0703C281.364 63.7031 279.948 62.1569 279.004 60.4316C278.06 58.6738 277.588 56.5905 277.588 54.1816C277.588 49.8848 279.15 46.3203 282.275 43.4883C285.433 40.6237 289.453 39.1914 294.336 39.1914C299.479 39.1914 303.613 40.6888 306.738 43.6836C309.863 46.6784 311.426 50.5195 311.426 55.207H302.832C302.832 52.8307 302.035 50.8125 300.439 49.1523C298.844 47.4596 296.81 46.6133 294.336 46.6133C291.797 46.6133 289.795 47.2806 288.33 48.6152C286.898 49.9173 286.182 51.6751 286.182 53.8887C286.182 55.6465 286.702 57.0625 287.744 58.1367C288.818 59.2109 291.374 60.627 295.41 62.3848C301.823 64.8913 306.185 67.349 308.496 69.7578C310.807 72.1341 311.963 75.1615 311.963 78.8398C311.963 83.4297 310.384 87.1081 307.227 89.875C304.069 92.6094 299.837 93.9766 294.531 93.9766C289.03 93.9766 284.57 92.3978 281.152 89.2402C277.734 86.0827 276.025 82.0788 276.025 77.2285H284.717C284.814 80.1582 285.71 82.4531 287.402 84.1133C289.095 85.7734 291.471 86.6035 294.531 86.6035C297.396 86.6035 299.577 85.9688 301.074 84.6992C302.572 83.3971 303.32 81.6556 303.32 79.4746ZM339.258 66.4863H319.092V59.1133H339.258V66.4863ZM356.885 40.168V99.6406C356.787 109.439 352.913 114.338 345.264 114.338C343.506 114.338 341.927 114.045 340.527 113.459L340.479 106.232C341.357 106.493 342.48 106.623 343.848 106.623C345.312 106.623 346.403 106.07 347.119 104.963C347.868 103.889 348.242 102.001 348.242 99.2988V40.168H356.885ZM357.275 26.1543C357.275 27.6191 356.868 28.8398 356.055 29.8164C355.241 30.793 354.004 31.2812 352.344 31.2812C350.716 31.2812 349.495 30.793 348.682 29.8164C347.9 28.8398 347.51 27.6191 347.51 26.1543C347.51 24.6895 347.9 23.4525 348.682 22.4434C349.495 21.4342 350.716 20.9297 352.344 20.9297C353.971 20.9297 355.192 21.4505 356.006 22.4922C356.852 23.5013 357.275 24.722 357.275 26.1543ZM389.307 93.9766C382.731 93.9766 377.686 92.0234 374.17 88.1172C370.654 84.1784 368.864 78.4167 368.799 70.832V64.4355C368.799 56.5579 370.508 50.3893 373.926 45.9297C377.376 41.4375 382.178 39.1914 388.33 39.1914C394.515 39.1914 399.137 41.1608 402.197 45.0996C405.257 49.0384 406.82 55.1745 406.885 63.5078V69.1719H377.393V70.3926C377.393 76.0566 378.451 80.1745 380.566 82.7461C382.715 85.3177 385.791 86.6035 389.795 86.6035C392.334 86.6035 394.564 86.1315 396.484 85.1875C398.438 84.2109 400.26 82.681 401.953 80.5977L406.445 86.0664C402.702 91.3398 396.989 93.9766 389.307 93.9766ZM388.33 46.6133C384.749 46.6133 382.096 47.8503 380.371 50.3242C378.646 52.7656 377.669 56.5742 377.441 61.75H398.242V60.5781C398.014 55.5651 397.103 51.9844 395.508 49.8359C393.945 47.6875 391.553 46.6133 388.33 46.6133ZM449.121 72.9805C449.121 69.0742 449.528 65.9004 450.342 63.459C451.156 61.0176 453.141 57.9089 456.299 54.1328L459.717 49.7383C461.995 46.5482 463.135 43.2279 463.135 39.7773C463.135 36.3594 462.419 33.6901 460.986 31.7695C459.587 29.8164 457.568 28.8398 454.932 28.8398C452.458 28.8398 450.391 29.7188 448.73 31.4766C447.103 33.2344 446.289 35.5944 446.289 38.5566H437.695C437.76 33.1855 439.388 28.9049 442.578 25.7148C445.768 22.5247 449.886 20.9297 454.932 20.9297C460.173 20.9297 464.29 22.5736 467.285 25.8613C470.28 29.1491 471.777 33.6901 471.777 39.4844C471.777 45.0182 469.515 50.5684 464.99 56.1348L460.498 61.5547C458.643 64.1914 457.715 68 457.715 72.9805H449.121ZM453.809 83.2832C455.436 83.2832 456.657 83.7878 457.471 84.7969C458.317 85.7734 458.74 86.9941 458.74 88.459C458.74 89.9238 458.317 91.1445 457.471 92.1211C456.657 93.0651 455.436 93.5371 453.809 93.5371C452.148 93.5371 450.911 93.0651 450.098 92.1211C449.316 91.1445 448.926 89.9238 448.926 88.459C448.926 86.9941 449.316 85.7734 450.098 84.7969C450.911 83.7878 452.148 83.2832 453.809 83.2832Z" fill="white"/>
</svg>
