<svg width="140" height="75" viewBox="0 0 140 75" fill="none" xmlns="http://www.w3.org/2000/svg">
<path d="M16.6201 51.7939L17.084 55.7734L17.792 52.2578L23.4805 27.4531H27.2158L32.7334 52.2578L33.4414 55.8711L33.9541 51.7695L38.2998 27.4531H42.7676L35.6875 63H31.6592L25.7266 37.0967L25.3604 34.9971L24.9941 37.0967L18.8418 63H14.7891L7.7334 27.4531H12.2012L16.6201 51.7939ZM51.6299 39.2939C53.2738 37.1618 55.3734 36.0957 57.9287 36.0957C62.5999 36.0957 64.9681 39.2125 65.0332 45.4463V63H60.7363V45.6416C60.7363 43.5745 60.3864 42.1097 59.6865 41.2471C59.0029 40.3681 57.9694 39.9287 56.5859 39.9287C55.5117 39.9287 54.5433 40.2868 53.6807 41.0029C52.8343 41.7191 52.1507 42.6549 51.6299 43.8105V63H47.3086V25.5H51.6299V39.2939ZM70.5752 48.5713C70.5752 44.7301 71.5029 41.6946 73.3584 39.4648C75.2301 37.2187 77.696 36.0957 80.7559 36.0957C83.8158 36.0957 86.2734 37.1862 88.1289 39.3672C90.0007 41.5482 90.9609 44.5185 91.0098 48.2783V51.0615C91.0098 54.8864 90.082 57.9137 88.2266 60.1435C86.3711 62.3734 83.8971 63.4883 80.8047 63.4883C77.7448 63.4883 75.2871 62.4059 73.4316 60.2412C71.5924 58.0765 70.6403 55.1468 70.5752 51.4521V48.5713ZM74.8965 51.0615C74.8965 53.7796 75.4255 55.9199 76.4834 57.4824C77.5576 59.0286 78.998 59.8017 80.8047 59.8017C84.6133 59.8017 86.5745 57.0511 86.6885 51.5498V48.5713C86.6885 45.8695 86.1514 43.7373 85.0771 42.1748C84.0029 40.596 82.5625 39.8066 80.7559 39.8066C78.9818 39.8066 77.5576 40.596 76.4834 42.1748C75.4255 43.7373 74.8965 45.8613 74.8965 48.5469V51.0615ZM112.714 63H108.393V36.584H112.714V63ZM113.056 29.5771C113.056 30.3096 112.852 30.9199 112.445 31.4082C112.038 31.8965 111.42 32.1406 110.59 32.1406C109.776 32.1406 109.166 31.8965 108.759 31.4082C108.352 30.9199 108.148 30.3096 108.148 29.5771C108.148 28.8447 108.352 28.2262 108.759 27.7217C109.166 27.2171 109.776 26.9648 110.59 26.9648C111.404 26.9648 112.014 27.2252 112.421 27.7461C112.844 28.2506 113.056 28.861 113.056 29.5771ZM132.367 56.2373C132.367 55.3096 132.017 54.512 131.317 53.8447C130.618 53.1774 129.267 52.3961 127.265 51.501C124.937 50.5407 123.293 49.7187 122.333 49.0351C121.389 48.3515 120.681 47.5784 120.209 46.7158C119.737 45.8369 119.501 44.7952 119.501 43.5908C119.501 41.4424 120.282 39.6601 121.845 38.2441C123.424 36.8118 125.434 36.0957 127.875 36.0957C130.447 36.0957 132.514 36.8444 134.076 38.3418C135.639 39.8392 136.42 41.7598 136.42 44.1035H132.123C132.123 42.9153 131.724 41.9062 130.927 41.0762C130.129 40.2298 129.112 39.8066 127.875 39.8066C126.605 39.8066 125.604 40.1403 124.872 40.8076C124.156 41.4586 123.798 42.3375 123.798 43.4443C123.798 44.3232 124.058 45.0312 124.579 45.5683C125.116 46.1055 126.394 46.8135 128.412 47.6924C131.618 48.9456 133.799 50.1745 134.955 51.3789C136.111 52.567 136.688 54.0807 136.688 55.9199C136.688 58.2148 135.899 60.054 134.32 61.4375C132.742 62.8047 130.626 63.4883 127.973 63.4883C125.222 63.4883 122.992 62.6989 121.283 61.1201C119.574 59.5413 118.72 57.5394 118.72 55.1142H123.065C123.114 56.5791 123.562 57.7265 124.408 58.5566C125.255 59.3867 126.443 59.8017 127.973 59.8017C129.405 59.8017 130.495 59.4844 131.244 58.8496C131.993 58.1986 132.367 57.3278 132.367 56.2373Z" fill="#02FEC2"/>
<path d="M13.6201 48.7939L14.084 52.7734L14.792 49.2578L20.4805 24.4531H24.2158L29.7334 49.2578L30.4414 52.8711L30.9541 48.7695L35.2998 24.4531H39.7676L32.6875 60H28.6592L22.7266 34.0967L22.3604 31.9971L21.9941 34.0967L15.8418 60H11.7891L4.7334 24.4531H9.20117L13.6201 48.7939ZM48.6299 36.2939C50.2738 34.1618 52.3734 33.0957 54.9287 33.0957C59.5999 33.0957 61.9681 36.2125 62.0332 42.4463V60H57.7363V42.6416C57.7363 40.5745 57.3864 39.1097 56.6865 38.2471C56.0029 37.3681 54.9694 36.9287 53.5859 36.9287C52.5117 36.9287 51.5433 37.2868 50.6807 38.0029C49.8343 38.7191 49.1507 39.6549 48.6299 40.8105V60H44.3086V22.5H48.6299V36.2939ZM67.5752 45.5713C67.5752 41.7301 68.5029 38.6946 70.3584 36.4648C72.2301 34.2187 74.696 33.0957 77.7559 33.0957C80.8158 33.0957 83.2734 34.1862 85.1289 36.3672C87.0007 38.5482 87.9609 41.5185 88.0098 45.2783V48.0615C88.0098 51.8864 87.082 54.9137 85.2266 57.1435C83.3711 59.3734 80.8971 60.4883 77.8047 60.4883C74.7448 60.4883 72.2871 59.4059 70.4316 57.2412C68.5924 55.0765 67.6403 52.1468 67.5752 48.4521V45.5713ZM71.8965 48.0615C71.8965 50.7796 72.4255 52.9199 73.4834 54.4824C74.5576 56.0286 75.998 56.8017 77.8047 56.8017C81.6133 56.8017 83.5745 54.0511 83.6885 48.5498V45.5713C83.6885 42.8695 83.1514 40.7373 82.0771 39.1748C81.0029 37.596 79.5625 36.8066 77.7559 36.8066C75.9818 36.8066 74.5576 37.596 73.4834 39.1748C72.4255 40.7373 71.8965 42.8613 71.8965 45.5469V48.0615ZM109.714 60H105.393V33.584H109.714V60ZM110.056 26.5771C110.056 27.3096 109.852 27.9199 109.445 28.4082C109.038 28.8965 108.42 29.1406 107.59 29.1406C106.776 29.1406 106.166 28.8965 105.759 28.4082C105.352 27.9199 105.148 27.3096 105.148 26.5771C105.148 25.8447 105.352 25.2262 105.759 24.7217C106.166 24.2171 106.776 23.9648 107.59 23.9648C108.404 23.9648 109.014 24.2252 109.421 24.7461C109.844 25.2506 110.056 25.861 110.056 26.5771ZM129.367 53.2373C129.367 52.3096 129.017 51.512 128.317 50.8447C127.618 50.1774 126.267 49.3961 124.265 48.501C121.937 47.5407 120.293 46.7187 119.333 46.0351C118.389 45.3515 117.681 44.5784 117.209 43.7158C116.737 42.8369 116.501 41.7952 116.501 40.5908C116.501 38.4424 117.282 36.6601 118.845 35.2441C120.424 33.8118 122.434 33.0957 124.875 33.0957C127.447 33.0957 129.514 33.8444 131.076 35.3418C132.639 36.8392 133.42 38.7598 133.42 41.1035H129.123C129.123 39.9153 128.724 38.9062 127.927 38.0762C127.129 37.2298 126.112 36.8066 124.875 36.8066C123.605 36.8066 122.604 37.1403 121.872 37.8076C121.156 38.4586 120.798 39.3375 120.798 40.4443C120.798 41.3232 121.058 42.0312 121.579 42.5683C122.116 43.1055 123.394 43.8135 125.412 44.6924C128.618 45.9456 130.799 47.1745 131.955 48.3789C133.111 49.567 133.688 51.0807 133.688 52.9199C133.688 55.2148 132.899 57.054 131.32 58.4375C129.742 59.8047 127.626 60.4883 124.973 60.4883C122.222 60.4883 119.992 59.6989 118.283 58.1201C116.574 56.5413 115.72 54.5394 115.72 52.1142H120.065C120.114 53.5791 120.562 54.7265 121.408 55.5566C122.255 56.3867 123.443 56.8017 124.973 56.8017C126.405 56.8017 127.495 56.4844 128.244 55.8496C128.993 55.1986 129.367 54.3278 129.367 53.2373Z" fill="#0057FF"/>
<path d="M10.6201 47.7939L11.084 51.7734L11.792 48.2578L17.4805 23.4531H21.2158L26.7334 48.2578L27.4414 51.8711L27.9541 47.7695L32.2998 23.4531H36.7676L29.6875 59H25.6592L19.7266 33.0967L19.3604 30.9971L18.9941 33.0967L12.8418 59H8.78906L1.7334 23.4531H6.20117L10.6201 47.7939ZM45.6299 35.2939C47.2738 33.1618 49.3734 32.0957 51.9287 32.0957C56.5999 32.0957 58.9681 35.2125 59.0332 41.4463V59H54.7363V41.6416C54.7363 39.5745 54.3864 38.1097 53.6865 37.2471C53.0029 36.3681 51.9694 35.9287 50.5859 35.9287C49.5117 35.9287 48.5433 36.2868 47.6807 37.0029C46.8343 37.7191 46.1507 38.6549 45.6299 39.8105V59H41.3086V21.5H45.6299V35.2939ZM64.5752 44.5713C64.5752 40.7301 65.5029 37.6946 67.3584 35.4648C69.2301 33.2187 71.696 32.0957 74.7559 32.0957C77.8158 32.0957 80.2734 33.1862 82.1289 35.3672C84.0007 37.5482 84.9609 40.5185 85.0098 44.2783V47.0615C85.0098 50.8864 84.082 53.9137 82.2266 56.1435C80.3711 58.3734 77.8971 59.4883 74.8047 59.4883C71.7448 59.4883 69.2871 58.4059 67.4316 56.2412C65.5924 54.0765 64.6403 51.1468 64.5752 47.4521V44.5713ZM68.8965 47.0615C68.8965 49.7796 69.4255 51.9199 70.4834 53.4824C71.5576 55.0286 72.998 55.8017 74.8047 55.8017C78.6133 55.8017 80.5745 53.0511 80.6885 47.5498V44.5713C80.6885 41.8695 80.1514 39.7373 79.0771 38.1748C78.0029 36.596 76.5625 35.8066 74.7559 35.8066C72.9818 35.8066 71.5576 36.596 70.4834 38.1748C69.4255 39.7373 68.8965 41.8613 68.8965 44.5469V47.0615ZM106.714 59H102.393V32.584H106.714V59ZM107.056 25.5771C107.056 26.3096 106.852 26.9199 106.445 27.4082C106.038 27.8965 105.42 28.1406 104.59 28.1406C103.776 28.1406 103.166 27.8965 102.759 27.4082C102.352 26.9199 102.148 26.3096 102.148 25.5771C102.148 24.8447 102.352 24.2262 102.759 23.7217C103.166 23.2171 103.776 22.9648 104.59 22.9648C105.404 22.9648 106.014 23.2252 106.421 23.7461C106.844 24.2506 107.056 24.861 107.056 25.5771ZM126.367 52.2373C126.367 51.3096 126.017 50.512 125.317 49.8447C124.618 49.1774 123.267 48.3961 121.265 47.501C118.937 46.5407 117.293 45.7187 116.333 45.0351C115.389 44.3515 114.681 43.5784 114.209 42.7158C113.737 41.8369 113.501 40.7952 113.501 39.5908C113.501 37.4424 114.282 35.6601 115.845 34.2441C117.424 32.8118 119.434 32.0957 121.875 32.0957C124.447 32.0957 126.514 32.8444 128.076 34.3418C129.639 35.8392 130.42 37.7598 130.42 40.1035H126.123C126.123 38.9153 125.724 37.9062 124.927 37.0762C124.129 36.2298 123.112 35.8066 121.875 35.8066C120.605 35.8066 119.604 36.1403 118.872 36.8076C118.156 37.4586 117.798 38.3375 117.798 39.4443C117.798 40.3232 118.058 41.0312 118.579 41.5683C119.116 42.1055 120.394 42.8135 122.412 43.6924C125.618 44.9456 127.799 46.1745 128.955 47.3789C130.111 48.567 130.688 50.0807 130.688 51.9199C130.688 54.2148 129.899 56.054 128.32 57.4375C126.742 58.8047 124.626 59.4883 121.973 59.4883C119.222 59.4883 116.992 58.6989 115.283 57.1201C113.574 55.5413 112.72 53.5394 112.72 51.1142H117.065C117.114 52.5791 117.562 53.7265 118.408 54.5566C119.255 55.3867 120.443 55.8017 121.973 55.8017C123.405 55.8017 124.495 55.4844 125.244 54.8496C125.993 54.1986 126.367 53.3278 126.367 52.2373Z" fill="white"/>
<path d="M85.6155 7.63212C84.8601 7.29216 83.9721 7.629 83.6321 8.38446L78.0922 20.6954C77.7522 21.4509 78.0891 22.3389 78.8445 22.6788C79.6 23.0188 80.488 22.682 80.828 21.9265L85.7523 10.9834L96.6954 15.9078C97.4509 16.2478 98.3389 15.9109 98.6788 15.1555C99.0188 14.4 98.6819 13.512 97.9265 13.172L85.6155 7.63212ZM97.4025 37.468L86.4025 8.46802L83.5975 9.53198L94.5975 38.532L97.4025 37.468Z" fill="#02FEC2"/>
<path d="M81.6155 4.63212C80.8601 4.29216 79.9721 4.629 79.6321 5.38446L74.0922 17.6954C73.7522 18.4509 74.0891 19.3389 74.8445 19.6788C75.6 20.0188 76.488 19.682 76.828 18.9265L81.7523 7.98343L92.6954 12.9078C93.4509 13.2478 94.3389 12.9109 94.6788 12.1555C95.0188 11.4 94.6819 10.512 93.9265 10.172L81.6155 4.63212ZM93.4025 34.468L82.4025 5.46802L79.5975 6.53198L90.5975 35.532L93.4025 34.468Z" fill="white"/>
</svg>
